<mxfile host="65bd71144e">
    <diagram id="fvpNTSLE3v3FUgTHyEfr" name="Page-1">
        <mxGraphModel dx="554" dy="867" grid="1" gridSize="10" guides="1" tooltips="1" connect="1" arrows="1" fold="1" page="1" pageScale="1" pageWidth="850" pageHeight="1100" math="0" shadow="0">
            <root>
                <mxCell id="0"/>
                <mxCell id="1" parent="0"/>
                <mxCell id="4" value="" style="group;fontSize=20;" vertex="1" connectable="0" parent="1">
                    <mxGeometry x="100" y="140" width="160" height="80" as="geometry"/>
                </mxCell>
                <mxCell id="2" value="a" style="whiteSpace=wrap;html=1;aspect=fixed;movable=1;resizable=1;rotatable=1;deletable=1;editable=1;connectable=1;fontSize=20;" vertex="1" parent="4">
                    <mxGeometry width="80" height="80" as="geometry"/>
                </mxCell>
                <mxCell id="3" value="" style="whiteSpace=wrap;html=1;aspect=fixed;movable=1;resizable=1;rotatable=1;deletable=1;editable=1;connectable=1;fontSize=20;" vertex="1" parent="4">
                    <mxGeometry x="80" width="80" height="80" as="geometry"/>
                </mxCell>
                <mxCell id="5" value="" style="group;fontSize=20;" vertex="1" connectable="0" parent="1">
                    <mxGeometry x="100" y="220" width="160" height="80" as="geometry"/>
                </mxCell>
                <mxCell id="6" value="b" style="whiteSpace=wrap;html=1;aspect=fixed;movable=1;resizable=1;rotatable=1;deletable=1;editable=1;connectable=1;fontSize=20;" vertex="1" parent="5">
                    <mxGeometry width="80" height="80" as="geometry"/>
                </mxCell>
                <mxCell id="7" value="" style="whiteSpace=wrap;html=1;aspect=fixed;movable=1;resizable=1;rotatable=1;deletable=1;editable=1;connectable=1;fontSize=20;" vertex="1" parent="5">
                    <mxGeometry x="80" width="80" height="80" as="geometry"/>
                </mxCell>
                <mxCell id="8" value="" style="group;fontSize=20;" vertex="1" connectable="0" parent="1">
                    <mxGeometry x="100" y="300" width="160" height="80" as="geometry"/>
                </mxCell>
                <mxCell id="9" value="c" style="whiteSpace=wrap;html=1;aspect=fixed;movable=1;resizable=1;rotatable=1;deletable=1;editable=1;connectable=1;fontSize=20;" vertex="1" parent="8">
                    <mxGeometry width="80" height="80" as="geometry"/>
                </mxCell>
                <mxCell id="10" value="" style="whiteSpace=wrap;html=1;aspect=fixed;movable=1;resizable=1;rotatable=1;deletable=1;editable=1;connectable=1;fontSize=20;" vertex="1" parent="8">
                    <mxGeometry x="80" width="80" height="80" as="geometry"/>
                </mxCell>
                <mxCell id="11" value="" style="group;fontSize=20;" vertex="1" connectable="0" parent="1">
                    <mxGeometry x="100" y="380" width="160" height="80" as="geometry"/>
                </mxCell>
                <mxCell id="12" value="d" style="whiteSpace=wrap;html=1;aspect=fixed;movable=1;resizable=1;rotatable=1;deletable=1;editable=1;connectable=1;fontSize=20;" vertex="1" parent="11">
                    <mxGeometry width="80" height="80" as="geometry"/>
                </mxCell>
                <mxCell id="13" value="" style="whiteSpace=wrap;html=1;aspect=fixed;movable=1;resizable=1;rotatable=1;deletable=1;editable=1;connectable=1;fontSize=20;" vertex="1" parent="11">
                    <mxGeometry x="80" width="80" height="80" as="geometry"/>
                </mxCell>
                <mxCell id="14" value="" style="group;fontSize=20;" vertex="1" connectable="0" parent="1">
                    <mxGeometry x="100" y="460" width="160" height="80" as="geometry"/>
                </mxCell>
                <mxCell id="15" value="e" style="whiteSpace=wrap;html=1;aspect=fixed;movable=1;resizable=1;rotatable=1;deletable=1;editable=1;connectable=1;fontSize=20;" vertex="1" parent="14">
                    <mxGeometry width="80" height="80" as="geometry"/>
                </mxCell>
                <mxCell id="16" value="" style="whiteSpace=wrap;html=1;aspect=fixed;movable=1;resizable=1;rotatable=1;deletable=1;editable=1;connectable=1;fontSize=20;" vertex="1" parent="14">
                    <mxGeometry x="80" width="80" height="80" as="geometry"/>
                </mxCell>
                <mxCell id="17" value="0" style="text;html=1;align=center;verticalAlign=middle;resizable=0;points=[];autosize=1;strokeColor=none;fillColor=none;fontSize=20;" vertex="1" parent="1">
                    <mxGeometry x="40" y="160" width="30" height="40" as="geometry"/>
                </mxCell>
                <mxCell id="18" value="1" style="text;html=1;align=center;verticalAlign=middle;resizable=0;points=[];autosize=1;strokeColor=none;fillColor=none;fontSize=20;" vertex="1" parent="1">
                    <mxGeometry x="40" y="240" width="30" height="40" as="geometry"/>
                </mxCell>
                <mxCell id="19" value="2" style="text;html=1;align=center;verticalAlign=middle;resizable=0;points=[];autosize=1;strokeColor=none;fillColor=none;fontSize=20;" vertex="1" parent="1">
                    <mxGeometry x="40" y="320" width="30" height="40" as="geometry"/>
                </mxCell>
                <mxCell id="20" value="3" style="text;html=1;align=center;verticalAlign=middle;resizable=0;points=[];autosize=1;strokeColor=none;fillColor=none;fontSize=20;" vertex="1" parent="1">
                    <mxGeometry x="40" y="400" width="30" height="40" as="geometry"/>
                </mxCell>
                <mxCell id="21" value="4" style="text;html=1;align=center;verticalAlign=middle;resizable=0;points=[];autosize=1;strokeColor=none;fillColor=none;fontSize=20;" vertex="1" parent="1">
                    <mxGeometry x="40" y="480" width="30" height="40" as="geometry"/>
                </mxCell>
                <mxCell id="42" value="" style="group;fontSize=20;" vertex="1" connectable="0" parent="1">
                    <mxGeometry x="310" y="150" width="119" height="60" as="geometry"/>
                </mxCell>
                <mxCell id="39" value="1" style="whiteSpace=wrap;html=1;aspect=fixed;movable=1;resizable=1;rotatable=1;deletable=1;editable=1;connectable=1;fontSize=20;" vertex="1" parent="42">
                    <mxGeometry width="59" height="60" as="geometry"/>
                </mxCell>
                <mxCell id="40" value="" style="whiteSpace=wrap;html=1;aspect=fixed;movable=1;resizable=1;rotatable=1;deletable=1;editable=1;connectable=1;fontSize=20;" vertex="1" parent="42">
                    <mxGeometry x="60" width="59" height="60" as="geometry"/>
                </mxCell>
                <mxCell id="43" value="" style="group;fontSize=20;" vertex="1" connectable="0" parent="1">
                    <mxGeometry x="480" y="150" width="119" height="60" as="geometry"/>
                </mxCell>
                <mxCell id="44" value="3" style="whiteSpace=wrap;html=1;aspect=fixed;movable=1;resizable=1;rotatable=1;deletable=1;editable=1;connectable=1;fontSize=20;" vertex="1" parent="43">
                    <mxGeometry width="59" height="60" as="geometry"/>
                </mxCell>
                <mxCell id="45" value="^" style="whiteSpace=wrap;html=1;aspect=fixed;movable=1;resizable=1;rotatable=1;deletable=1;editable=1;connectable=1;fontSize=20;" vertex="1" parent="43">
                    <mxGeometry x="60" width="59" height="60" as="geometry"/>
                </mxCell>
                <mxCell id="46" style="edgeStyle=none;html=1;exitX=1;exitY=0.5;exitDx=0;exitDy=0;entryX=0;entryY=0.5;entryDx=0;entryDy=0;fontSize=20;" edge="1" parent="1" source="3" target="39">
                    <mxGeometry relative="1" as="geometry"/>
                </mxCell>
                <mxCell id="47" style="edgeStyle=none;html=1;exitX=1;exitY=0.5;exitDx=0;exitDy=0;entryX=0;entryY=0.5;entryDx=0;entryDy=0;fontSize=20;" edge="1" parent="1" source="40" target="44">
                    <mxGeometry relative="1" as="geometry"/>
                </mxCell>
                <mxCell id="48" value="" style="group;fontSize=20;" vertex="1" connectable="0" parent="1">
                    <mxGeometry x="310" y="230" width="119" height="60" as="geometry"/>
                </mxCell>
                <mxCell id="49" value="0" style="whiteSpace=wrap;html=1;aspect=fixed;movable=1;resizable=1;rotatable=1;deletable=1;editable=1;connectable=1;fontSize=20;" vertex="1" parent="48">
                    <mxGeometry width="59" height="60" as="geometry"/>
                </mxCell>
                <mxCell id="50" value="^" style="whiteSpace=wrap;html=1;aspect=fixed;movable=1;resizable=1;rotatable=1;deletable=1;editable=1;connectable=1;fontSize=20;" vertex="1" parent="48">
                    <mxGeometry x="60" width="59" height="60" as="geometry"/>
                </mxCell>
                <mxCell id="51" style="edgeStyle=none;html=1;exitX=1;exitY=0.5;exitDx=0;exitDy=0;fontSize=20;" edge="1" parent="1" source="7" target="49">
                    <mxGeometry relative="1" as="geometry"/>
                </mxCell>
                <mxCell id="52" value="" style="group;fontSize=20;" vertex="1" connectable="0" parent="1">
                    <mxGeometry x="480" y="310" width="119" height="60" as="geometry"/>
                </mxCell>
                <mxCell id="53" value="3" style="whiteSpace=wrap;html=1;aspect=fixed;movable=1;resizable=1;rotatable=1;deletable=1;editable=1;connectable=1;fontSize=20;" vertex="1" parent="52">
                    <mxGeometry width="59" height="60" as="geometry"/>
                </mxCell>
                <mxCell id="54" value="^" style="whiteSpace=wrap;html=1;aspect=fixed;movable=1;resizable=1;rotatable=1;deletable=1;editable=1;connectable=1;fontSize=20;" vertex="1" parent="52">
                    <mxGeometry x="60" width="59" height="60" as="geometry"/>
                </mxCell>
                <mxCell id="55" value="" style="group;fontSize=20;" vertex="1" connectable="0" parent="1">
                    <mxGeometry x="310" y="310" width="119" height="60" as="geometry"/>
                </mxCell>
                <mxCell id="56" value="1" style="whiteSpace=wrap;html=1;aspect=fixed;movable=1;resizable=1;rotatable=1;deletable=1;editable=1;connectable=1;fontSize=20;" vertex="1" parent="55">
                    <mxGeometry width="59" height="60" as="geometry"/>
                </mxCell>
                <mxCell id="57" value="" style="whiteSpace=wrap;html=1;aspect=fixed;movable=1;resizable=1;rotatable=1;deletable=1;editable=1;connectable=1;fontSize=20;" vertex="1" parent="55">
                    <mxGeometry x="60" width="59" height="60" as="geometry"/>
                </mxCell>
                <mxCell id="58" style="edgeStyle=none;html=1;exitX=1;exitY=0.5;exitDx=0;exitDy=0;entryX=0;entryY=0.5;entryDx=0;entryDy=0;fontSize=20;" edge="1" parent="1" source="10" target="56">
                    <mxGeometry relative="1" as="geometry"/>
                </mxCell>
                <mxCell id="59" style="edgeStyle=none;html=1;exitX=1;exitY=0.5;exitDx=0;exitDy=0;entryX=0;entryY=0.5;entryDx=0;entryDy=0;fontSize=20;" edge="1" parent="1" source="57" target="53">
                    <mxGeometry relative="1" as="geometry"/>
                </mxCell>
                <mxCell id="60" value="" style="group;fontSize=20;" vertex="1" connectable="0" parent="1">
                    <mxGeometry x="310" y="390" width="119" height="60" as="geometry"/>
                </mxCell>
                <mxCell id="61" value="4" style="whiteSpace=wrap;html=1;aspect=fixed;movable=1;resizable=1;rotatable=1;deletable=1;editable=1;connectable=1;fontSize=20;" vertex="1" parent="60">
                    <mxGeometry width="59" height="60" as="geometry"/>
                </mxCell>
                <mxCell id="62" value="^" style="whiteSpace=wrap;html=1;aspect=fixed;movable=1;resizable=1;rotatable=1;deletable=1;editable=1;connectable=1;fontSize=20;" vertex="1" parent="60">
                    <mxGeometry x="60" width="59" height="60" as="geometry"/>
                </mxCell>
                <mxCell id="67" style="edgeStyle=none;html=1;exitX=1;exitY=0.5;exitDx=0;exitDy=0;entryX=0;entryY=0.5;entryDx=0;entryDy=0;fontSize=20;" edge="1" parent="1" source="13" target="61">
                    <mxGeometry relative="1" as="geometry"/>
                </mxCell>
                <mxCell id="68" value="" style="group;fontSize=20;" vertex="1" connectable="0" parent="1">
                    <mxGeometry x="650" y="470" width="119" height="60" as="geometry"/>
                </mxCell>
                <mxCell id="69" value="2" style="whiteSpace=wrap;html=1;aspect=fixed;movable=1;resizable=1;rotatable=1;deletable=1;editable=1;connectable=1;fontSize=20;" vertex="1" parent="68">
                    <mxGeometry width="59" height="60" as="geometry"/>
                </mxCell>
                <mxCell id="70" value="^" style="whiteSpace=wrap;html=1;aspect=fixed;movable=1;resizable=1;rotatable=1;deletable=1;editable=1;connectable=1;fontSize=20;" vertex="1" parent="68">
                    <mxGeometry x="60" width="59" height="60" as="geometry"/>
                </mxCell>
                <mxCell id="71" value="" style="group;fontSize=20;" vertex="1" connectable="0" parent="1">
                    <mxGeometry x="480" y="470" width="119" height="60" as="geometry"/>
                </mxCell>
                <mxCell id="72" value="1" style="whiteSpace=wrap;html=1;aspect=fixed;movable=1;resizable=1;rotatable=1;deletable=1;editable=1;connectable=1;fontSize=20;" vertex="1" parent="71">
                    <mxGeometry width="59" height="60" as="geometry"/>
                </mxCell>
                <mxCell id="73" value="" style="whiteSpace=wrap;html=1;aspect=fixed;movable=1;resizable=1;rotatable=1;deletable=1;editable=1;connectable=1;fontSize=20;" vertex="1" parent="71">
                    <mxGeometry x="60" width="59" height="60" as="geometry"/>
                </mxCell>
                <mxCell id="74" value="" style="group;fontSize=20;" vertex="1" connectable="0" parent="1">
                    <mxGeometry x="310" y="470" width="119" height="60" as="geometry"/>
                </mxCell>
                <mxCell id="75" value="0" style="whiteSpace=wrap;html=1;aspect=fixed;movable=1;resizable=1;rotatable=1;deletable=1;editable=1;connectable=1;fontSize=20;" vertex="1" parent="74">
                    <mxGeometry width="59" height="60" as="geometry"/>
                </mxCell>
                <mxCell id="76" value="" style="whiteSpace=wrap;html=1;aspect=fixed;movable=1;resizable=1;rotatable=1;deletable=1;editable=1;connectable=1;fontSize=20;" vertex="1" parent="74">
                    <mxGeometry x="60" width="59" height="60" as="geometry"/>
                </mxCell>
                <mxCell id="77" style="edgeStyle=none;html=1;exitX=1;exitY=0.5;exitDx=0;exitDy=0;entryX=0;entryY=0.5;entryDx=0;entryDy=0;fontSize=20;" edge="1" parent="1" source="16" target="75">
                    <mxGeometry relative="1" as="geometry"/>
                </mxCell>
                <mxCell id="78" style="edgeStyle=none;html=1;exitX=1;exitY=0.5;exitDx=0;exitDy=0;entryX=0;entryY=0.5;entryDx=0;entryDy=0;fontSize=20;" edge="1" parent="1" source="76" target="72">
                    <mxGeometry relative="1" as="geometry"/>
                </mxCell>
                <mxCell id="79" style="edgeStyle=none;html=1;exitX=1;exitY=0.5;exitDx=0;exitDy=0;entryX=0;entryY=0.5;entryDx=0;entryDy=0;fontSize=20;" edge="1" parent="1" source="73" target="69">
                    <mxGeometry relative="1" as="geometry"/>
                </mxCell>
            </root>
        </mxGraphModel>
    </diagram>
</mxfile>